<mxfile host="" modified="2020-06-11T10:52:49.247Z" agent="5.0 (Windows NT 10.0; Win64; x64) AppleWebKit/537.36 (KHTML, like Gecko) Code/1.46.0 Chrome/78.0.3904.130 Electron/7.3.1 Safari/537.36" etag="Bxhhz7qiAyb_l3Z7CQTr" version="13.1.3">
    <diagram id="6hGFLwfOUW9BJ-s0fimq" name="Page-1">
        <mxGraphModel dx="1976" dy="716" grid="1" gridSize="10" guides="1" tooltips="1" connect="1" arrows="1" fold="1" page="1" pageScale="1" pageWidth="827" pageHeight="1169" math="0" shadow="0">
            <root>
                <mxCell id="0"/>
                <mxCell id="1" parent="0"/>
                <mxCell id="6" style="edgeStyle=orthogonalEdgeStyle;rounded=0;orthogonalLoop=1;jettySize=auto;html=1;exitX=0.25;exitY=1;exitDx=0;exitDy=0;entryX=0.5;entryY=0;entryDx=0;entryDy=0;" edge="1" parent="1" source="2" target="3">
                    <mxGeometry relative="1" as="geometry">
                        <mxPoint x="519.7142857142858" y="320" as="targetPoint"/>
                    </mxGeometry>
                </mxCell>
                <mxCell id="10" style="edgeStyle=orthogonalEdgeStyle;rounded=0;orthogonalLoop=1;jettySize=auto;html=1;exitX=0.75;exitY=1;exitDx=0;exitDy=0;entryX=0.5;entryY=0;entryDx=0;entryDy=0;" edge="1" parent="1" source="2" target="4">
                    <mxGeometry relative="1" as="geometry"/>
                </mxCell>
                <mxCell id="2" value="+/front&lt;br&gt;automatically" style="rounded=0;whiteSpace=wrap;html=1;glass=0;shadow=0;comic=0;fontStyle=1" vertex="1" parent="1">
                    <mxGeometry x="480" y="200" width="160" height="80" as="geometry"/>
                </mxCell>
                <mxCell id="22" style="edgeStyle=orthogonalEdgeStyle;rounded=0;orthogonalLoop=1;jettySize=auto;html=1;exitX=0.75;exitY=1;exitDx=0;exitDy=0;entryX=0.25;entryY=0;entryDx=0;entryDy=0;" edge="1" parent="1" source="3" target="20">
                    <mxGeometry relative="1" as="geometry"/>
                </mxCell>
                <mxCell id="28" style="edgeStyle=none;rounded=0;orthogonalLoop=1;jettySize=auto;html=1;exitX=0.25;exitY=1;exitDx=0;exitDy=0;" edge="1" parent="1" source="3">
                    <mxGeometry relative="1" as="geometry">
                        <mxPoint x="359.7142857142858" y="680" as="targetPoint"/>
                    </mxGeometry>
                </mxCell>
                <mxCell id="3" value="+/metric" style="rounded=0;whiteSpace=wrap;html=1;glass=0;shadow=0;comic=0;fontStyle=1" vertex="1" parent="1">
                    <mxGeometry x="320" y="360" width="160" height="80" as="geometry"/>
                </mxCell>
                <mxCell id="23" style="edgeStyle=orthogonalEdgeStyle;rounded=0;orthogonalLoop=1;jettySize=auto;html=1;exitX=0.25;exitY=1;exitDx=0;exitDy=0;entryX=0.75;entryY=0;entryDx=0;entryDy=0;" edge="1" parent="1" source="4" target="20">
                    <mxGeometry relative="1" as="geometry"/>
                </mxCell>
                <mxCell id="25" style="rounded=0;orthogonalLoop=1;jettySize=auto;html=1;exitX=0.75;exitY=1;exitDx=0;exitDy=0;" edge="1" parent="1" source="4">
                    <mxGeometry relative="1" as="geometry">
                        <mxPoint x="760" y="680" as="targetPoint"/>
                        <Array as="points">
                            <mxPoint x="760" y="560"/>
                        </Array>
                    </mxGeometry>
                </mxCell>
                <mxCell id="4" value="+/imperial" style="rounded=0;whiteSpace=wrap;html=1;glass=0;shadow=0;comic=0;fontStyle=1" vertex="1" parent="1">
                    <mxGeometry x="640" y="360" width="160" height="80" as="geometry"/>
                </mxCell>
                <mxCell id="13" style="edgeStyle=orthogonalEdgeStyle;rounded=0;orthogonalLoop=1;jettySize=auto;html=1;exitX=0.5;exitY=1;exitDx=0;exitDy=0;entryX=0.5;entryY=0;entryDx=0;entryDy=0;" edge="1" parent="1" source="11" target="2">
                    <mxGeometry relative="1" as="geometry"/>
                </mxCell>
                <mxCell id="11" value="&amp;nbsp;/ or invalid&lt;br&gt;automatically" style="rounded=0;whiteSpace=wrap;html=1;shadow=0;glass=0;comic=0;" vertex="1" parent="1">
                    <mxGeometry x="240" y="40" width="120" height="80" as="geometry"/>
                </mxCell>
                <mxCell id="17" value="IF METRIC&amp;nbsp; DEFAULT" style="text;html=1;align=center;verticalAlign=middle;resizable=0;points=[];autosize=1;" vertex="1" parent="1">
                    <mxGeometry x="390" y="300" width="140" height="20" as="geometry"/>
                </mxCell>
                <mxCell id="18" value="IF IMPERIAL DEFAULT" style="text;html=1;align=center;verticalAlign=middle;resizable=0;points=[];autosize=1;" vertex="1" parent="1">
                    <mxGeometry x="600" y="300" width="140" height="20" as="geometry"/>
                </mxCell>
                <mxCell id="26" style="edgeStyle=none;rounded=0;orthogonalLoop=1;jettySize=auto;html=1;exitX=0.5;exitY=1;exitDx=0;exitDy=0;" edge="1" parent="1" source="20">
                    <mxGeometry relative="1" as="geometry">
                        <mxPoint x="559.7142857142858" y="680" as="targetPoint"/>
                    </mxGeometry>
                </mxCell>
                <mxCell id="20" value="+/settings" style="rounded=0;whiteSpace=wrap;html=1;glass=0;shadow=0;comic=0;fontStyle=1" vertex="1" parent="1">
                    <mxGeometry x="480" y="520" width="160" height="80" as="geometry"/>
                </mxCell>
                <mxCell id="29" value="" style="endArrow=none;html=1;" edge="1" parent="1">
                    <mxGeometry width="50" height="50" relative="1" as="geometry">
                        <mxPoint x="40" y="680" as="sourcePoint"/>
                        <mxPoint x="760" y="680" as="targetPoint"/>
                    </mxGeometry>
                </mxCell>
                <mxCell id="33" style="edgeStyle=none;rounded=0;orthogonalLoop=1;jettySize=auto;html=1;entryX=0.75;entryY=1;entryDx=0;entryDy=0;" edge="1" parent="1" target="32">
                    <mxGeometry relative="1" as="geometry">
                        <mxPoint x="39.85714285714289" y="680" as="targetPoint"/>
                        <mxPoint x="40" y="680" as="sourcePoint"/>
                    </mxGeometry>
                </mxCell>
                <mxCell id="32" value="root/back&lt;br&gt;automatically" style="rounded=0;whiteSpace=wrap;html=1;glass=0;shadow=0;comic=0;fontStyle=1" vertex="1" parent="1">
                    <mxGeometry x="-80" y="200" width="160" height="80" as="geometry"/>
                </mxCell>
            </root>
        </mxGraphModel>
    </diagram>
</mxfile>